<?xml version="1.0" standalone="no"?><!DOCTYPE svg PUBLIC "-//W3C//DTD SVG 1.1//EN" "http://www.w3.org/Graphics/SVG/1.1/DTD/svg11.dtd"><svg t="1685241205902" class="icon" viewBox="0 0 1024 1024" version="1.1" xmlns="http://www.w3.org/2000/svg" p-id="1814" data-darkreader-inline-fill="" xmlns:xlink="http://www.w3.org/1999/xlink" width="200" height="200"><path d="M512 512m-501.76 0a501.76 501.76 0 1 0 1003.52 0 501.76 501.76 0 1 0-1003.52 0Z" fill="#FFECE9" p-id="1815" data-darkreader-inline-fill="" style="--darkreader-inline-fill: #400900;"></path><path d="M917.7088 377.6512c-31.9488 0-57.9584-26.0096-57.9584-57.9584 0 31.9488-26.0096 57.9584-57.9584 57.9584s-57.9584-26.0096-57.9584-57.9584c0 31.9488-26.0096 57.9584-57.9584 57.9584s-57.9584-26.0096-57.9584-57.9584c0 31.9488-26.0096 57.9584-57.9584 57.9584-31.9488 0-57.9584-26.0096-57.9584-57.9584 0 31.9488-26.0096 57.9584-57.9584 57.9584-31.9488 0-57.9584-26.0096-57.9584-57.9584 0 31.9488-26.0096 57.9584-57.9584 57.9584s-57.9584-26.0096-57.9584-57.9584c0 31.9488-26.0096 57.9584-57.9584 57.9584s-57.9584-26.0096-57.9584-57.9584c0 31.9488-26.0096 57.9584-57.9584 57.9584-31.9488 0-57.9584-25.8048-57.9584-57.7536C23.7568 378.88 10.24 443.8016 10.24 512c0 277.0944 224.6656 501.76 501.76 501.76s501.76-224.6656 501.76-501.76c0-68.1984-13.5168-133.12-38.0928-192.3072-0.2048 31.9488-26.0096 57.9584-57.9584 57.9584z" fill="#508DEF" p-id="1816" data-darkreader-inline-fill="" style="--darkreader-inline-fill: #0e4398;"></path><path d="M512 1024c-136.8064 0-265.4208-53.248-362.0864-149.9136C53.248 777.4208 0 648.8064 0 512S53.248 246.5792 149.9136 149.9136C246.5792 53.248 375.1936 0 512 0s265.4208 53.248 362.0864 149.9136C970.752 246.5792 1024 375.1936 1024 512s-53.248 265.4208-149.9136 362.0864C777.4208 970.752 648.8064 1024 512 1024z m0-1003.52C241.0496 20.48 20.48 241.0496 20.48 512s220.5696 491.52 491.52 491.52 491.52-220.5696 491.52-491.52S782.9504 20.48 512 20.48z" fill="#1C1D21" p-id="1817" data-darkreader-inline-fill="" style="--darkreader-inline-fill: #17191a;"></path><path d="M512 1024c-136.8064 0-265.4208-53.248-362.0864-149.9136C53.248 777.4208 0 648.8064 0 512c0-67.9936 13.1072-133.9392 38.912-196.1984 1.8432-4.5056 6.7584-7.168 11.4688-6.144s8.192 5.12 8.192 10.0352c0 26.2144 21.504 47.5136 47.7184 47.5136s47.7184-21.2992 47.7184-47.7184c0-5.7344 4.5056-10.24 10.24-10.24s10.24 4.5056 10.24 10.24c0 26.2144 21.504 47.7184 47.7184 47.7184s47.7184-21.2992 47.7184-47.7184c0-5.7344 4.5056-10.24 10.24-10.24s10.24 4.5056 10.24 10.24c0 26.2144 21.2992 47.7184 47.7184 47.7184s47.7184-21.2992 47.7184-47.7184c0-5.7344 4.5056-10.24 10.24-10.24s10.24 4.5056 10.24 10.24c0 26.2144 21.2992 47.7184 47.7184 47.7184S501.76 345.9072 501.76 319.488c0-5.7344 4.5056-10.24 10.24-10.24s10.24 4.5056 10.24 10.24c0 26.2144 21.2992 47.7184 47.7184 47.7184s47.7184-21.2992 47.7184-47.7184c0-5.7344 4.5056-10.24 10.24-10.24s10.24 4.5056 10.24 10.24c0 26.2144 21.504 47.7184 47.7184 47.7184s47.7184-21.2992 47.7184-47.7184c0-5.7344 4.5056-10.24 10.24-10.24s10.24 4.5056 10.24 10.24c0 26.2144 21.2992 47.7184 47.7184 47.7184 26.2144 0 47.7184-21.2992 47.7184-47.7184 0-5.7344 4.5056-10.24 10.24-10.24s10.24 4.5056 10.24 10.24c0 26.2144 21.2992 47.7184 47.7184 47.7184 26.2144 0 47.7184-21.2992 47.7184-47.5136 0-4.9152 3.4816-9.0112 8.192-10.0352s9.6256 1.6384 11.4688 6.144c25.8048 62.2592 38.912 128.2048 38.912 196.1984 0 136.8064-53.248 265.4208-149.9136 362.0864C777.4208 970.752 648.8064 1024 512 1024zM46.8992 352.8704C29.2864 403.8656 20.48 457.3184 20.48 512c0 270.9504 220.5696 491.52 491.52 491.52s491.52-220.5696 491.52-491.52c0-54.6816-8.8064-108.1344-26.4192-159.1296-11.6736 20.8896-33.9968 35.0208-59.5968 35.0208-24.3712 0-45.8752-12.9024-57.9584-32.3584-12.0832 19.456-33.5872 32.3584-57.9584 32.3584s-45.8752-12.9024-57.9584-32.3584c-12.0832 19.456-33.5872 32.3584-57.9584 32.3584s-45.8752-12.9024-57.9584-32.3584c-12.0832 19.456-33.5872 32.3584-57.9584 32.3584s-45.8752-12.9024-57.9584-32.3584c-12.0832 19.456-33.5872 32.3584-57.9584 32.3584s-45.8752-12.9024-57.9584-32.3584c-12.0832 19.456-33.5872 32.3584-57.9584 32.3584s-45.8752-12.9024-57.9584-32.3584c-12.0832 19.456-33.5872 32.3584-57.9584 32.3584s-45.8752-12.9024-57.9584-32.3584c-12.0832 19.456-33.5872 32.3584-57.9584 32.3584-25.1904 0-47.5136-14.1312-59.1872-35.0208z" fill="#1C1D21" p-id="1818" data-darkreader-inline-fill="" style="--darkreader-inline-fill: #17191a;"></path><path d="M200.0896 905.0112C285.9008 973.2096 394.24 1013.76 512 1013.76s226.0992-40.5504 311.9104-108.7488c-97.28-19.6608-202.3424-30.3104-311.9104-30.3104s-214.6304 10.8544-311.9104 30.3104z" fill="#FFC5B3" p-id="1819" data-darkreader-inline-fill="" style="--darkreader-inline-fill: #611700;"></path><path d="M512 1024c-116.736 0-226.9184-38.2976-318.2592-110.7968-3.072-2.4576-4.5056-6.5536-3.6864-10.4448 1.024-3.8912 4.096-6.7584 7.9872-7.5776 100.352-20.2752 206.0288-30.5152 313.7536-30.5152s213.4016 10.24 313.7536 30.5152c3.8912 0.8192 6.9632 3.6864 7.9872 7.5776 1.024 3.8912-0.4096 7.9872-3.6864 10.4448C738.9184 985.7024 628.736 1024 512 1024z m-287.3344-113.2544C308.6336 971.5712 407.552 1003.52 512 1003.52s203.3664-31.9488 287.3344-92.7744c-92.3648-17.2032-188.8256-25.8048-287.3344-25.8048s-194.9696 8.8064-287.3344 25.8048z" fill="#1C1D21" p-id="1820" data-darkreader-inline-fill="" style="--darkreader-inline-fill: #17191a;"></path><path d="M583.2704 452.1984h-105.2672c-56.1152 0-101.7856 45.4656-101.7856 101.7856 0 56.1152 45.4656 101.7856 101.7856 101.7856h105.2672c56.1152 0 101.7856-45.4656 101.7856-101.7856 0-56.32-45.4656-101.7856-101.7856-101.7856z" fill="#8CEEF9" p-id="1821" data-darkreader-inline-fill="" style="--darkreader-inline-fill: #066a75;"></path><path d="M583.2704 665.8048h-52.6336c-5.7344 0-10.24-4.5056-10.24-10.24s4.5056-10.24 10.24-10.24h52.6336c50.3808 0 91.5456-40.96 91.5456-91.5456s-40.96-91.5456-91.5456-91.5456h-105.2672c-50.3808 0-91.5456 40.96-91.5456 91.5456s40.96 91.5456 91.5456 91.5456c5.7344 0 10.24 4.5056 10.24 10.24s-4.5056 10.24-10.24 10.24c-61.8496 0-112.0256-50.176-112.0256-112.0256s50.176-112.0256 112.0256-112.0256h105.2672c61.8496 0 112.0256 50.176 112.0256 112.0256s-50.176 112.0256-112.0256 112.0256z" fill="#1C1D21" p-id="1822" data-darkreader-inline-fill="" style="--darkreader-inline-fill: #17191a;"></path><path d="M417.1776 564.224c-5.7344 0-10.24-4.5056-10.24-10.24 0-39.1168 31.9488-71.0656 71.0656-71.0656h5.12c5.7344 0 10.24 4.5056 10.24 10.24s-4.5056 10.24-10.24 10.24h-5.12c-27.8528 0-50.5856 22.7328-50.5856 50.5856 0 5.5296-4.5056 10.24-10.24 10.24zM519.5776 503.3984h-2.6624c-5.7344 0-10.24-4.5056-10.24-10.24s4.5056-10.24 10.24-10.24h2.6624c5.7344 0 10.24 4.5056 10.24 10.24s-4.5056 10.24-10.24 10.24z" fill="#DCFDFF" p-id="1823" data-darkreader-inline-fill="" style="--darkreader-inline-fill: #b3fbff;"></path><path d="M292.0448 469.6064h-29.696v168.5504h29.696c46.4896 0 84.1728-37.6832 84.1728-84.1728 0-46.6944-37.6832-84.3776-84.1728-84.3776z" fill="#8CEEF9" p-id="1824" data-darkreader-inline-fill="" style="--darkreader-inline-fill: #7eecf8;"></path><path d="M292.0448 648.3968h-29.696c-5.7344 0-10.24-4.5056-10.24-10.24s4.5056-10.24 10.24-10.24h29.696c40.7552 0 73.9328-33.1776 73.9328-73.9328s-33.1776-73.9328-73.9328-73.9328h-29.696c-5.7344 0-10.24-4.5056-10.24-10.24s4.5056-10.24 10.24-10.24h29.696c52.0192 0 94.4128 42.3936 94.4128 94.4128 0 52.0192-42.3936 94.4128-94.4128 94.4128zM591.4624 665.6c-2.6624 0-5.5296-1.024-7.5776-3.2768-27.2384-29.696-42.1888-68.1984-42.1888-108.3392 0-40.3456 14.9504-78.6432 42.1888-108.3392 3.8912-4.096 10.24-4.5056 14.5408-0.6144 4.096 3.8912 4.5056 10.24 0.6144 14.5408-23.7568 25.8048-36.864 59.392-36.864 94.4128s13.1072 68.608 36.864 94.4128c3.8912 4.096 3.4816 10.6496-0.6144 14.5408-2.048 1.6384-4.5056 2.6624-6.9632 2.6624z" fill="#1C1D21" p-id="1825" data-darkreader-inline-fill="" style="--darkreader-inline-fill: #17191a;"></path><path d="M618.496 521.0112m-17.408 0a17.408 17.408 0 1 0 34.816 0 17.408 17.408 0 1 0-34.816 0Z" fill="#1C1D21" p-id="1826" data-darkreader-inline-fill="" style="--darkreader-inline-fill: #d5d1cc;"></path><path d="M298.3936 534.7328H258.048c-5.7344 0-10.24-4.5056-10.24-10.24s4.5056-10.24 10.24-10.24h40.1408c5.7344 0 10.24 4.5056 10.24 10.24s-4.5056 10.24-10.0352 10.24zM298.3936 593.5104H258.048c-5.7344 0-10.24-4.5056-10.24-10.24s4.5056-10.24 10.24-10.24h40.1408c5.7344 0 10.24 4.5056 10.24 10.24s-4.5056 10.24-10.0352 10.24zM217.9072 534.7328h-12.288c-5.7344 0-10.24-4.5056-10.24-10.24s4.5056-10.24 10.24-10.24h12.288c5.7344 0 10.24 4.5056 10.24 10.24s-4.7104 10.24-10.24 10.24zM217.9072 479.8464h-12.288c-5.7344 0-10.24-4.5056-10.24-10.24s4.5056-10.24 10.24-10.24h12.288c5.7344 0 10.24 4.5056 10.24 10.24s-4.7104 10.24-10.24 10.24zM217.9072 648.3968h-12.288c-5.7344 0-10.24-4.5056-10.24-10.24s4.5056-10.24 10.24-10.24h12.288c5.7344 0 10.24 4.5056 10.24 10.24s-4.7104 10.24-10.24 10.24zM217.9072 593.5104h-12.288c-5.7344 0-10.24-4.5056-10.24-10.24s4.5056-10.24 10.24-10.24h12.288c5.7344 0 10.24 4.5056 10.24 10.24s-4.7104 10.24-10.24 10.24z" fill="#1C1D21" p-id="1827" data-darkreader-inline-fill="" style="--darkreader-inline-fill: #17191a;"></path><path d="M531.0464 865.6896c-19.456 59.392-25.1904 114.8928-17.408 148.0704 25.8048-22.3232 54.0672-70.4512 73.3184-129.8432 19.456-59.392 25.1904-114.8928 17.408-148.0704-25.6 22.1184-53.8624 70.4512-73.3184 129.8432z" fill="#0ABFB2" p-id="1828" data-darkreader-inline-fill="" style="--darkreader-inline-fill: #08998e;"></path><path d="M436.8384 883.9168c-19.456-59.392-25.1904-114.8928-17.408-148.0704 25.8048 22.3232 54.0672 70.4512 73.3184 129.8432 19.456 59.392 25.1904 114.8928 17.408 148.0704-25.6-22.3232-53.8624-70.4512-73.3184-129.8432z" fill="#0ABFB2" p-id="1829" data-darkreader-inline-fill="" style="--darkreader-inline-fill: #08998e;"></path><path d="M513.6384 1024c-1.024 0-2.048-0.2048-3.2768-0.4096-3.4816-1.024-5.9392-3.8912-6.7584-7.3728-8.3968-36.4544-1.8432-94.0032 17.6128-153.6s48.128-109.9776 76.3904-134.3488c2.6624-2.2528 6.5536-3.072 9.8304-2.048 3.4816 1.024 5.9392 3.8912 6.7584 7.3728 8.3968 36.4544 1.8432 94.0032-17.6128 153.6s-48.128 109.9776-76.3904 134.3488c-1.8432 1.6384-4.096 2.4576-6.5536 2.4576z m83.5584-266.0352c-20.8896 25.1904-41.5744 65.536-56.5248 110.7968-14.7456 45.2608-21.9136 90.112-19.8656 122.6752 20.8896-25.1904 41.5744-65.536 56.5248-110.7968 14.7456-45.2608 21.9136-90.112 19.8656-122.6752z m-66.1504 107.7248z" fill="#1C1D21" p-id="1830" data-darkreader-inline-fill="" style="--darkreader-inline-fill: #17191a;"></path><path d="M510.3616 1024c-2.4576 0-4.7104-0.8192-6.7584-2.4576-28.4672-24.576-56.9344-74.752-76.3904-134.3488-19.456-59.5968-26.2144-117.1456-17.6128-153.6 0.8192-3.4816 3.4816-6.3488 6.7584-7.3728 3.4816-1.024 7.168-0.4096 9.8304 2.048 28.4672 24.576 56.9344 74.752 76.3904 134.3488 19.456 59.5968 26.2144 117.1456 17.6128 153.6-0.8192 3.4816-3.4816 6.3488-6.7584 7.3728-1.024 0.2048-2.048 0.4096-3.072 0.4096z m-83.5584-266.0352c-2.048 32.5632 5.12 77.4144 19.8656 122.6752 14.7456 45.2608 35.6352 85.6064 56.5248 110.7968 2.048-32.5632-5.12-77.4144-19.8656-122.6752-14.9504-45.2608-35.6352-85.6064-56.5248-110.7968z" fill="#1C1D21" p-id="1831" data-darkreader-inline-fill="" style="--darkreader-inline-fill: #17191a;"></path><path d="M482.5088 867.5328c0 62.464 11.8784 117.1456 29.4912 146.2272 17.6128-29.2864 29.4912-83.7632 29.4912-146.2272 0-62.464-11.8784-117.1456-29.4912-146.2272-17.6128 29.0816-29.4912 83.7632-29.4912 146.2272z" fill="#0ABFB2" p-id="1832" data-darkreader-inline-fill="" style="--darkreader-inline-fill: #08998e;"></path><path d="M512 1024c-3.6864 0-6.9632-1.8432-8.8064-4.9152-19.456-32.1536-30.9248-88.6784-30.9248-151.552s11.4688-119.3984 30.9248-151.552c1.8432-3.072 5.12-4.9152 8.8064-4.9152s6.9632 1.8432 8.8064 4.9152c19.456 32.1536 30.9248 88.6784 30.9248 151.552s-11.4688 119.3984-30.9248 151.552c-1.8432 3.072-5.12 4.9152-8.8064 4.9152z m0-279.3472c-12.0832 30.3104-19.2512 75.1616-19.2512 122.88s7.168 92.5696 19.2512 122.88c12.0832-30.3104 19.2512-75.1616 19.2512-122.88s-7.168-92.5696-19.2512-122.88z" fill="#1C1D21" p-id="1833" data-darkreader-inline-fill="" style="--darkreader-inline-fill: #17191a;"></path><path d="M251.904 941.056c12.6976 7.7824 26.0096 14.9504 39.5264 21.504 12.6976-22.3232 24.576-49.152 34.2016-78.848 19.456-59.392 25.1904-114.8928 17.408-148.0704-25.8048 22.3232-54.0672 70.4512-73.3184 129.8432-8.8064 26.624-14.7456 52.224-17.8176 75.5712zM231.424 865.6896c-19.456-59.392-47.7184-107.52-73.3184-129.8432-7.5776 33.1776-2.048 88.6784 17.408 148.0704 0 0.2048 0 0.2048 0.2048 0.4096 22.7328 20.48 47.3088 38.912 73.3184 55.0912-3.2768-22.9376-9.216-47.9232-17.6128-73.728z" fill="#0ABFB2" p-id="1834" data-darkreader-inline-fill="" style="--darkreader-inline-fill: #08998e;"></path><path d="M291.2256 973.0048c-1.4336 0-3.072-0.4096-4.5056-1.024-13.9264-6.7584-27.4432-14.1312-40.3456-22.1184-3.4816-2.048-5.3248-6.144-4.9152-10.24 3.4816-24.7808 9.6256-50.7904 18.2272-77.2096 19.456-59.5968 48.128-109.9776 76.3904-134.3488 2.6624-2.2528 6.5536-3.072 9.8304-2.048 3.4816 1.024 5.9392 3.8912 6.7584 7.3728 8.3968 36.4544 1.8432 94.0032-17.6128 153.6-9.6256 29.2864-21.7088 57.1392-35.2256 80.6912-1.4336 3.4816-4.9152 5.3248-8.6016 5.3248zM262.9632 935.936c7.7824 4.5056 15.9744 9.0112 24.1664 13.312 10.8544-20.48 20.6848-43.8272 28.672-68.4032 14.7456-45.2608 21.9136-90.112 19.8656-122.6752-20.8896 25.1904-41.5744 65.536-56.5248 110.7968-7.168 22.3232-12.6976 45.4656-16.1792 66.9696z" fill="#1C1D21" p-id="1835" data-darkreader-inline-fill="" style="--darkreader-inline-fill: #17191a;"></path><path d="M249.0368 949.6576c-1.8432 0-3.6864-0.4096-5.3248-1.4336-26.624-16.384-51.8144-35.2256-74.9568-56.1152-1.2288-1.2288-2.2528-2.6624-2.8672-4.3008l-0.2048-0.4096c-19.456-59.5968-26.0096-117.1456-17.6128-153.6 0.8192-3.4816 3.4816-6.3488 6.7584-7.3728 3.4816-1.024 7.168-0.4096 9.8304 2.048 28.4672 24.576 56.9344 74.752 76.3904 134.3488 8.3968 25.8048 14.5408 51.2 18.0224 75.5712 0.6144 3.8912-1.2288 7.7824-4.5056 10.0352-1.6384 0.6144-3.6864 1.2288-5.5296 1.2288zM184.5248 878.592c15.9744 14.1312 32.768 27.4432 50.3808 39.5264-3.2768-15.9744-7.7824-32.5632-13.1072-49.152-14.7456-45.2608-35.6352-85.6064-56.5248-110.7968-2.048 31.9488 4.9152 75.776 19.2512 120.4224z m-8.8064 5.5296h-0.2048 0.2048z" fill="#1C1D21" p-id="1836" data-darkreader-inline-fill="" style="--darkreader-inline-fill: #17191a;"></path><path d="M279.9616 867.5328c0-62.464-11.8784-117.1456-29.4912-146.2272-17.6128 29.2864-29.4912 83.7632-29.4912 146.2272 0 19.456 1.2288 38.2976 3.2768 55.7056 15.36 10.6496 31.1296 20.48 47.5136 29.4912 5.3248-24.9856 8.192-54.0672 8.192-85.1968z" fill="#0ABFB2" p-id="1837" data-darkreader-inline-fill="" style="--darkreader-inline-fill: #08998e;"></path><path d="M271.9744 962.9696c-1.6384 0-3.4816-0.4096-4.9152-1.2288-16.5888-9.0112-32.9728-19.2512-48.5376-30.1056-2.4576-1.6384-3.8912-4.3008-4.3008-7.168-2.2528-18.2272-3.2768-37.4784-3.2768-56.9344 0-62.8736 11.4688-119.3984 30.9248-151.552 1.8432-3.072 5.12-4.9152 8.8064-4.9152 3.6864 0 6.9632 1.8432 8.8064 4.9152 19.456 32.1536 30.9248 88.6784 30.9248 151.552 0 30.72-2.8672 60.8256-8.192 87.2448-0.6144 3.2768-2.8672 5.9392-5.7344 7.168-1.6384 0.6144-3.072 1.024-4.5056 1.024z m-37.888-45.6704c9.8304 6.7584 20.0704 13.312 30.5152 19.2512 3.4816-21.504 5.3248-45.2608 5.3248-69.2224 0-47.7184-7.168-92.5696-19.2512-122.88-12.0832 30.3104-19.2512 75.1616-19.2512 122.88 0 17.2032 0.8192 33.9968 2.6624 49.9712z" fill="#1C1D21" p-id="1838" data-darkreader-inline-fill="" style="--darkreader-inline-fill: #17191a;"></path><path d="M865.8944 735.8464c-25.8048 22.3232-54.0672 70.4512-73.3184 129.8432-8.3968 25.8048-14.336 50.9952-17.6128 73.728 26.2144-16.1792 50.7904-34.6112 73.3184-55.0912 0-0.2048 0-0.2048 0.2048-0.4096 19.456-59.392 25.1904-114.8928 17.408-148.0704zM754.2784 865.6896c-19.456-59.392-47.7184-107.52-73.3184-129.8432-7.5776 33.1776-2.048 88.6784 17.408 148.0704 9.6256 29.696 21.504 56.5248 34.2016 78.848 13.5168-6.5536 26.624-13.7216 39.5264-21.504-3.072-23.552-9.0112-49.152-17.8176-75.5712z" fill="#0ABFB2" p-id="1839" data-darkreader-inline-fill="" style="--darkreader-inline-fill: #08998e;"></path><path d="M774.9632 949.6576c-2.048 0-3.8912-0.6144-5.5296-1.6384-3.2768-2.2528-5.12-6.144-4.5056-10.0352 3.4816-24.3712 9.6256-49.7664 18.0224-75.5712 19.456-59.5968 48.128-109.9776 76.3904-134.3488 2.6624-2.2528 6.5536-3.072 9.8304-2.048 3.4816 1.024 5.9392 3.8912 6.7584 7.3728 8.3968 36.4544 1.8432 94.0032-17.6128 153.6l-0.2048 0.4096c-0.6144 1.6384-1.6384 3.2768-2.8672 4.5056-23.1424 20.8896-48.3328 39.7312-74.9568 56.1152-1.6384 1.024-3.4816 1.6384-5.3248 1.6384z m83.7632-191.6928c-20.8896 25.1904-41.5744 65.536-56.5248 110.7968-5.5296 16.5888-9.8304 33.1776-13.1072 49.152 17.6128-12.0832 34.6112-25.1904 50.3808-39.5264 14.336-44.4416 21.2992-88.2688 19.2512-120.4224z" fill="#1C1D21" p-id="1840" data-darkreader-inline-fill="" style="--darkreader-inline-fill: #17191a;"></path><path d="M732.7744 973.0048c-3.4816 0-6.9632-1.8432-8.8064-5.12-13.312-23.552-25.6-51.4048-35.2256-80.6912-19.456-59.5968-26.2144-117.1456-17.6128-153.6 0.8192-3.4816 3.4816-6.3488 6.7584-7.3728 3.4816-1.024 7.168-0.4096 9.8304 2.048 28.4672 24.576 56.9344 74.752 76.3904 134.3488 8.6016 26.4192 14.7456 52.4288 18.2272 77.2096 0.6144 4.096-1.4336 7.9872-4.9152 10.24-12.9024 7.7824-26.4192 15.1552-40.3456 22.1184-1.2288 0.4096-2.8672 0.8192-4.3008 0.8192z m-44.6464-215.04c-2.048 32.5632 5.12 77.4144 19.8656 122.6752 7.9872 24.576 17.8176 47.9232 28.672 68.4032 8.192-4.3008 16.384-8.6016 24.1664-13.312-3.4816-21.504-9.0112-44.4416-16.384-66.9696-14.5408-45.2608-35.4304-85.6064-56.32-110.7968z" fill="#1C1D21" p-id="1841" data-darkreader-inline-fill="" style="--darkreader-inline-fill: #17191a;"></path><path d="M802.816 867.5328c0-62.464-11.8784-117.1456-29.4912-146.2272-17.6128 29.2864-29.4912 83.7632-29.4912 146.2272 0 31.1296 2.8672 60.2112 7.9872 85.1968 16.384-9.0112 32.3584-18.8416 47.5136-29.4912 2.4576-17.408 3.4816-36.2496 3.4816-55.7056z" fill="#0ABFB2" p-id="1842" data-darkreader-inline-fill="" style="--darkreader-inline-fill: #08998e;"></path><path d="M752.0256 962.9696c-1.4336 0-2.8672-0.4096-4.3008-1.024-2.8672-1.4336-5.12-4.096-5.7344-7.168-5.3248-26.4192-8.192-56.5248-8.192-87.2448 0-62.8736 11.4688-119.3984 30.9248-151.552 1.8432-3.072 5.12-4.9152 8.8064-4.9152s6.9632 1.8432 8.8064 4.9152c19.456 32.1536 30.9248 88.6784 30.9248 151.552 0 19.456-1.024 38.7072-3.2768 56.9344-0.4096 2.8672-1.8432 5.5296-4.3008 7.168-15.5648 11.0592-31.9488 21.0944-48.5376 30.1056-1.6384 0.8192-3.4816 1.2288-5.12 1.2288z m21.504-218.3168c-12.0832 30.3104-19.2512 75.1616-19.2512 122.88 0 23.9616 1.8432 47.7184 5.3248 69.2224 10.24-6.144 20.48-12.4928 30.5152-19.2512 1.8432-15.9744 2.6624-32.768 2.6624-49.7664-0.2048-47.9232-7.3728-92.7744-19.2512-123.0848z m26.0096 178.5856zM804.864 510.3616c-22.3232 0-40.5504-18.2272-40.5504-40.5504s18.2272-40.5504 40.5504-40.5504 40.5504 18.2272 40.5504 40.5504-18.2272 40.5504-40.5504 40.5504z m0-60.8256c-11.0592 0-20.0704 9.0112-20.0704 20.0704s9.0112 20.0704 20.0704 20.0704 20.0704-9.0112 20.0704-20.0704-9.0112-20.0704-20.0704-20.0704z" fill="#1C1D21" p-id="1843" data-darkreader-inline-fill="" style="--darkreader-inline-fill: #17191a;"></path><path d="M804.864 469.6064m-30.3104 0a30.3104 30.3104 0 1 0 60.6208 0 30.3104 30.3104 0 1 0-60.6208 0Z" fill="#DCFDFF" p-id="1844" data-darkreader-inline-fill="" style="--darkreader-inline-fill: #b3fbff;"></path><path d="M749.9776 574.2592m-24.9856 0a24.9856 24.9856 0 1 0 49.9712 0 24.9856 24.9856 0 1 0-49.9712 0Z" fill="#DCFDFF" p-id="1845" data-darkreader-inline-fill="" style="--darkreader-inline-fill: #b3fbff;"></path><path d="M804.864 510.3616c-22.3232 0-40.5504-18.2272-40.5504-40.5504s18.2272-40.5504 40.5504-40.5504 40.5504 18.2272 40.5504 40.5504-18.2272 40.5504-40.5504 40.5504z m0-60.8256c-11.0592 0-20.0704 9.0112-20.0704 20.0704s9.0112 20.0704 20.0704 20.0704 20.0704-9.0112 20.0704-20.0704-9.0112-20.0704-20.0704-20.0704zM749.9776 609.4848c-19.456 0-35.2256-15.7696-35.2256-35.2256s15.7696-35.2256 35.2256-35.2256 35.2256 15.7696 35.2256 35.2256-15.7696 35.2256-35.2256 35.2256z m0-49.9712c-8.192 0-14.7456 6.5536-14.7456 14.7456s6.5536 14.7456 14.7456 14.7456 14.7456-6.5536 14.7456-14.7456-6.5536-14.7456-14.7456-14.7456zM164.2496 286.1056c-5.7344 0-10.24-4.5056-10.24-10.24v-6.5536c0-5.7344 4.5056-10.24 10.24-10.24s10.24 4.5056 10.24 10.24v6.5536c0 5.5296-4.5056 10.24-10.24 10.24zM280.1664 286.1056c-5.7344 0-10.24-4.5056-10.24-10.24v-6.5536c0-5.7344 4.5056-10.24 10.24-10.24s10.24 4.5056 10.24 10.24v6.5536c0 5.5296-4.5056 10.24-10.24 10.24zM396.0832 286.1056c-5.7344 0-10.24-4.5056-10.24-10.24v-6.5536c0-5.7344 4.5056-10.24 10.24-10.24s10.24 4.5056 10.24 10.24v6.5536c0 5.5296-4.5056 10.24-10.24 10.24zM512 286.1056c-5.7344 0-10.24-4.5056-10.24-10.24v-6.5536c0-5.7344 4.5056-10.24 10.24-10.24s10.24 4.5056 10.24 10.24v6.5536c0 5.5296-4.7104 10.24-10.24 10.24zM627.9168 286.1056c-5.7344 0-10.24-4.5056-10.24-10.24v-6.5536c0-5.7344 4.5056-10.24 10.24-10.24s10.24 4.5056 10.24 10.24v6.5536c0 5.5296-4.7104 10.24-10.24 10.24zM743.6288 286.1056c-5.7344 0-10.24-4.5056-10.24-10.24v-6.5536c0-5.7344 4.5056-10.24 10.24-10.24s10.24 4.5056 10.24 10.24v6.5536c0 5.5296-4.5056 10.24-10.24 10.24zM859.5456 286.1056c-5.7344 0-10.24-4.5056-10.24-10.24v-6.5536c0-5.7344 4.5056-10.24 10.24-10.24s10.24 4.5056 10.24 10.24v6.5536c0 5.5296-4.5056 10.24-10.24 10.24z" fill="#1C1D21" p-id="1846" data-darkreader-inline-fill="" style="--darkreader-inline-fill: #17191a;"></path></svg>